#!OML:ASF H:\Terrain\Patient Classification 1\Walking\liu\liu.ASF
:FULLY-SPECIFIED
:DEGREES
272
root 9.77486 16.9775 7.1837 6.40509 1.54201 4.82869
lowerback -6.40806 -3.39542 -7.02857
upperback 0.0729477 -4.06154 1.60302
thorax 4.28365 -2.18495 5.19602
lowerneck -21.3906 -3.08086 -11.9279
upperneck 22.7395 -3.51297 11.8217
head 11.363 -1.16707 5.86245
rclavicle 1.40143e-014 2.38542e-015
rhumerus -46.7849 8.87128 -85.5772
rradius 27.6635
rwrist -8.81965
rhand -27.9309 -23.5572
rfingers 7.12502
rthumb -1.31915 -53.5328
lclavicle 1.40143e-014 2.38542e-015
lhumerus -12.1644 -22.0744 86.9404
lradius 33.5716
lwrist 6.98229
lhand -14.9718 -27.2299
lfingers 7.12502
lthumb 11.192 2.45163
rfemur -37.4687 11.3166 10.4647
rtibia 24.9252
rfoot -18.1954 -10.5741
rtoes -16.6664
lfemur 10.4406 3.94916 -28.2694
ltibia -9.54166e-015
lfoot -12.8408 2.94969
ltoes -3.45413
273
root 9.76077 16.9687 7.35076 6.41785 1.55351 4.88652
lowerback -6.56335 -3.37352 -7.10634
upperback 0.140835 -4.01098 1.55011
thorax 4.43683 -2.16768 5.18011
lowerneck -21.2147 -3.1381 -12.2359
upperneck 22.3846 -3.64927 12.4322
head 11.2354 -1.1839 6.1139
rclavicle 5.6753e-014 2.3059e-014
rhumerus -46.9423 8.87168 -85.8782
rradius 27.63
rwrist -10.2209
rhand -30.2618 -18.0988
rfingers 7.12502
rthumb -3.57025 -48.0487
lclavicle 5.6753e-014 2.3059e-014
lhumerus -12.0019 -22.1867 86.845
lradius 34.228
lwrist 7.09805
lhand -14.5178 -27.4307
lfingers 7.12502
lthumb 11.6298 2.22654
rfemur -37.9186 13.2516 9.32288
rtibia 24.3043
rfoot -18.7507 -11.3604
rtoes -16.6112
lfemur 11.0369 4.22688 -28.1181
ltibia 7.31528e-014
lfoot -13.0102 2.60241
ltoes -3.93451
274
root 9.74239 16.9486 7.52116 6.45679 1.49345 4.66704
lowerback -6.70305 -3.30632 -6.9305
upperback 0.191949 -3.92575 1.59547
thorax 4.54774 -2.12705 5.13092
lowerneck -21.6397 -3.27736 -12.0318
upperneck 22.6931 -3.81306 12.139
head 11.4479 -1.2666 5.95793
rclavicle 3.01159e-014 -3.4191e-014
rhumerus -47.1978 9.17162 -86.2163
rradius 27.6798
rwrist -11.6583
rhand -16.8455 -32.6696
rfingers 7.12502
rthumb 9.38439 -62.4406
lclavicle 3.01159e-014 -3.4191e-014
lhumerus -11.9451 -22.1822 86.8732
lradius 34.9278
lwrist 7.06703
lhand -14.4148 -27.284
lfingers 7.12502
lthumb 11.7292 2.3676
rfemur -38.2483 14.248 9.09035
rtibia 23.8057
rfoot -19.1563 -11.7694
rtoes -16.6374
lfemur 11.638 4.59463 -27.6663
ltibia -1.90833e-014
lfoot -13.1822 2.34984
ltoes -4.53985
275
root 9.7251 16.9244 7.69422 6.44634 1.46158 4.17449
lowerback -6.84818 -3.26511 -6.4721
upperback 0.219776 -3.90598 1.79034
thorax 4.63787 -2.11295 5.07248
lowerneck -21.4773 -3.24837 -12.0314
upperneck 22.5239 -3.71258 11.9072
head 11.3326 -1.25204 5.87283
rclavicle -9.88954e-015 2.62396e-014
rhumerus -47.1931 8.71678 -85.6286
rradius 27.4423
rwrist -10.5848
rhand -23.608 -27.5753
rfingers 7.12502
rthumb 2.85592 -57.536
lclavicle -9.88954e-015 2.62396e-014
lhumerus -11.9985 -22.1912 87.0874
lradius 35.4527
lwrist 7.21765
lhand -14.8086 -27.1991
lfingers 7.12502
lthumb 11.3493 2.47379
rfemur -38.37 14.5187 9.6086
rtibia 23.511
rfoot -19.9407 -11.6962
rtoes -17.8433
lfemur 12.302 4.96453 -26.9052
ltibia 5.08889e-014
lfoot -13.2615 1.89423
ltoes -4.99778
276
root 9.71255 16.9056 7.86588 6.36332 1.49879 3.95837
lowerback -6.85196 -3.32202 -6.24492
upperback 0.234327 -4.00416 1.88126
thorax 4.65947 -2.15866 5.02707
lowerneck -21.5597 -3.24269 -11.915
upperneck 22.56 -3.65279 11.5986
head 11.3443 -1.25043 5.74418
rclavicle 6.33626e-014 -1.59028e-015
rhumerus -47.0071 7.79419 -84.7191
rradius 26.7662
rwrist -8.16126
rhand -30.1086 -21.4832
rfingers 7.12502
rthumb -3.42234 -51.4355
lclavicle 6.33626e-014 -1.59028e-015
lhumerus -12.1814 -22.325 87.1492
lradius 36.0346
lwrist 7.86006
lhand -14.7632 -27.1858
lfingers 7.12502
lthumb 11.3931 2.48465
rfemur -38.1866 13.8626 10.3269
rtibia 23.4012
rfoot -20.1973 -11.1747
rtoes -18.6524
lfemur 13.0659 5.24736 -26.4542
ltibia 9.54166e-015
lfoot -13.2807 1.46184
ltoes -7.24142
277
root 9.69777 16.8891 8.0408 6.26833 1.5832 4.14926
lowerback -6.8242 -3.41039 -6.39121
upperback 0.201822 -4.10768 1.77781
thorax 4.62676 -2.20997 4.98966
lowerneck -21.647 -3.20014 -12.0084
upperneck 22.7837 -3.64354 11.8744
head 11.4517 -1.22083 5.8816
rclavicle -9.93923e-016 -9.54166e-015
rhumerus -46.9408 7.17295 -84.3011
rradius 26.001
rwrist -6.91357
rhand -21.9709 -26.8814
rfingers 7.12502
rthumb 4.43683 -56.8149
lclavicle -9.93923e-016 -9.54166e-015
lhumerus -12.5907 -22.4131 87.2057
lradius 36.654
lwrist 8.38949
lhand -14.5073 -27.172
lfingers 7.12502
lthumb 11.64 2.48466
rfemur -37.8306 12.683 10.8848
rtibia 23.4208
rfoot -19.527 -10.576
rtoes -18.112
lfemur 13.8872 5.44164 -26.4306
ltibia -7.95139e-014
lfoot -13.2937 1.11103
ltoes -9.49436
278
root 9.6777 16.8726 8.21903 6.14049 1.60667 4.32392
lowerback -6.63786 -3.50145 -6.6614
upperback 0.0840988 -4.223 1.7946
thorax 4.43576 -2.26479 5.15849
lowerneck -21.4707 -2.97782 -12.1989
upperneck 22.8996 -3.37162 12.1703
head 11.4298 -1.08438 6.07801
rclavicle 3.73218e-014 -4.77083e-015
rhumerus -47.0998 7.11956 -84.1351
rradius 25.6999
rwrist -7.22928
rhand -21.6667 -28.0352
rfingers 7.12502
rthumb 4.73062 -57.9624
lclavicle 3.73218e-014 -4.77083e-015
lhumerus -13.1307 -21.9689 87.5096
lradius 37.0662
lwrist 8.26936
lhand -14.584 -27.4977
lfingers 7.12502
lthumb 11.566 2.16317
rfemur -37.4294 11.6482 11.453
rtibia 23.728
rfoot -18.9443 -9.93225
rtoes -17.7102
lfemur 14.7295 5.69033 -26.3305
ltibia -2.8625e-014
lfoot -13.2184 0.634075
ltoes -8.43525
279
root 9.65861 16.8593 8.39356 6.04065 1.56598 4.43431
lowerback -6.46721 -3.54836 -6.86336
upperback 0.0931978 -4.28449 1.85719
thorax 4.37859 -2.29956 5.33961
lowerneck -21.6255 -2.89345 -12.1545
upperneck 22.8497 -3.18303 11.9524
head 11.4079 -1.01688 6.01392
rclavicle 5.89397e-014 1.51076e-014
rhumerus -47.1555 7.65403 -84.4363
rradius 25.6472
rwrist -8.40521
rhand -28.8803 -25.3279
rfingers 7.12502
rthumb -2.23614 -55.2959
lclavicle 5.89397e-014 1.51076e-014
lhumerus -13.3547 -21.8456 87.7229
lradius 37.4403
lwrist 8.43602
lhand -14.7149 -27.8073
lfingers 7.12502
lthumb 11.4397 1.86058
rfemur -37.0934 10.5568 12.1374
rtibia 24.3683
rfoot -18.164 -9.22162
rtoes -18.3536
lfemur 15.4488 6.0008 -26.1524
ltibia -1.59028e-014
lfoot -12.784 0.213996
ltoes -6.69492
280
root 9.63721 16.8214 8.57176 5.98465 1.43686 4.73473
lowerback -6.71095 -3.51151 -7.14824
upperback 0.278854 -4.18478 1.70591
thorax 4.70651 -2.27038 5.33402
lowerneck -21.8212 -2.99642 -11.8995
upperneck 22.6996 -3.31783 11.7098
head 11.4005 -1.07823 5.8481
rclavicle -3.50855e-014 1.74931e-014
rhumerus -46.7797 7.38496 -84.5797
rradius 25.0026
rwrist -8.20669
rhand -20.3108 -27.8864
rfingers 7.12502
rthumb 6.03976 -57.7803
lclavicle -3.50855e-014 1.74931e-014
lhumerus -13.4697 -22.4978 87.7241
lradius 37.9839
lwrist 9.24636
lhand -15.0439 -27.6591
lfingers 7.12502
lthumb 11.1224 2.02618
rfemur -36.8984 9.29586 12.6942
rtibia 25.1165
rfoot -16.5117 -8.45226
rtoes -19.8882
lfemur 16.1989 6.37005 -26.18
ltibia -6.36111e-015
lfoot -12.2782 -0.0903166
ltoes -6.03199
